<svg width="100" height="100" xmlns="http://www.w3.org/2000/svg">

 <g>
  <title>background</title>
  <rect fill="none" id="canvas_background" height="402" width="582" y="-1" x="-1"/>
 </g>
 <g>
  <title>Layer 1</title>
  <g id="svg_1">
   <path id="svg_2" fill="#ffffff" d="m43,4.99998c-9.9056,0 -18,8.0944 -18,18c0,9.9056 8.0944,18 18,18c9.9056,0 18,-8.0944 18,-18c0,-9.9056 -8.0944,-18 -18,-18zm0,6c6.663,0 12,5.3371 12,12c0,6.663 -5.337,12 -12,12c-6.663,0 -12,-5.337 -12,-12c0,-6.6629 5.337,-12 12,-12zm0,32c-8.86152,0 -16.90385,2.4018 -22.90625,6.43744c-6.0024,4.0358 -10.09375,9.9107 -10.09375,16.5626l0,20a3.0003,3.0003 0 0 0 3,3l47.09375,0c3.12394,3.6636 7.74095,6 12.90625,6c9.3533,0 17,-7.6467 17,-17c0,-8.5839 -6.46062,-15.6949 -14.75,-16.8125c-1.42519,-4.6569 -4.83275,-8.7171 -9.34375,-11.7501c-6.0024,-4.03564 -14.04473,-6.43744 -22.90625,-6.43744zm0,5.99994c7.75848,0 14.7199,2.1505 19.5625,5.4063c3.08598,2.075 5.26538,4.5141 6.4375,7.0938c-7.43037,1.8157 -13,8.5291 -13,16.5c0,1.7433 0.28846,3.4138 0.78125,5l-40.78125,0l0,-17c0,-4.1819 2.5949,-8.3378 7.4375,-11.5938c4.8426,-3.2558 11.80402,-5.4063 19.5625,-5.4063zm30,18.0001c6.1107,0 11,4.8893 11,11c0,6.1107 -4.8893,11 -11,11c-6.1107,0 -11,-4.8893 -11,-11c0,-6.1107 4.8893,-11 11,-11zm-7,8c-1.65685,0 -3,1.3432 -3,3c0,1.6569 1.34315,3 3,3l14,0c1.65685,0 3,-1.3431 3,-3c0,-1.6568 -1.34315,-3 -3,-3l-14,0z"/>
  </g>
 </g>
</svg>