<svg width="100" height="100" xmlns="http://www.w3.org/2000/svg">

 <g>
  <title>background</title>
  <rect fill="none" id="canvas_background" height="402" width="582" y="-1" x="-1"/>
 </g>
 <g>
  <title>Layer 1</title>
  <g id="svg_1">
   <path id="svg_2" fill="#ffffff" d="m43,4.99997c-9.9056,0 -18,8.0944 -18,18c0,9.9056 8.0944,17.99996 18,17.99996c9.9056,0 18,-8.09436 18,-17.99996c0,-9.9056 -8.0944,-18 -18,-18zm0,6c6.663,0 12,5.3371 12,12c0,6.663 -5.337,12 -12,12c-6.663,0 -12,-5.337 -12,-12c0,-6.6629 5.337,-12 12,-12zm0,31.99996c-8.86152,0 -16.90385,2.4018 -22.90625,6.43749c-6.0024,4.0358 -10.09375,9.9107 -10.09375,16.5626l0,20a3.0003,3.0003 0 0 0 3,3l47.09375,0c3.12394,3.6636 7.74095,6 12.90625,6c9.3533,0 17,-7.6467 17,-17c0,-8.5839 -6.46062,-15.6949 -14.75,-16.8125c-1.42519,-4.6569 -4.83275,-8.7171 -9.34375,-11.7501c-6.0024,-4.03569 -14.04473,-6.43749 -22.90625,-6.43749zm0,5.99999c7.75848,0 14.7199,2.1505 19.5625,5.4063c3.08598,2.075 5.26538,4.5141 6.4375,7.0938c-7.43037,1.8157 -13,8.5291 -13,16.5c0,1.7433 0.28846,3.4138 0.78125,5l-40.78125,0l0,-17c0,-4.1819 2.5949,-8.3378 7.4375,-11.5938c4.8426,-3.2558 11.80402,-5.4063 19.5625,-5.4063zm30,18.0001c6.1107,0 11,4.8893 11,11c0,6.1107 -4.8893,11 -11,11c-6.1107,0 -11,-4.8893 -11,-11c0,-6.1107 4.8893,-11 11,-11zm0,1c-0.82807,0 -1.58236,0.3321 -2.125,0.875l-5,5c-1.17108,1.1716 -1.17099,3.0785 0,4.25c1.133,1.1335 2.94778,1.1534 4.125,0.094l0,6.7812c0,1.6569 1.34386,3 3,3c1.65604,0 3,-1.3431 3,-3l0,-6.7812c1.17722,1.0597 2.992,1.0399 4.125,-0.094c1.17098,-1.1715 1.17107,-3.0784 0,-4.25l-5,-5c-0.54265,-0.5429 -1.29698,-0.875 -2.125,-0.875z"/>
  </g>
 </g>
</svg>