<?xml version="1.0" encoding="utf-8"?>
<!-- Generator: Adobe Illustrator 16.0.3, SVG Export Plug-In . SVG Version: 6.00 Build 0)  -->
<!DOCTYPE svg PUBLIC "-//W3C//DTD SVG 1.1//EN" "http://www.w3.org/Graphics/SVG/1.1/DTD/svg11.dtd">
<svg version="1.1" id="Capa_1" xmlns="http://www.w3.org/2000/svg" xmlns:xlink="http://www.w3.org/1999/xlink" x="0px" y="0px"
	 width="24px" height="24px" viewBox="0 0 24 24" enable-background="new 0 0 24 24" xml:space="preserve">
<path d="M20,3h-1V1h-2v2H7V1H5v2H4C2.9,3,2,3.9,2,5v16c0,1.1,0.9,2,2,2h16c1.1,0,2-0.9,2-2V5C22,3.9,21.1,3,20,3z M20,21H4V8h16V21z
	 M11.638,12.11H8.913V9.385h2.725V12.11z M15.062,12.11h-2.726V9.385h2.726V12.11z M18.484,12.11H15.76V9.385h2.725V12.11z
	 M8.215,15.982H5.49v-2.725h2.725V15.982z M11.638,15.982H8.913v-2.725h2.725V15.982z M15.062,15.982h-2.726v-2.725h2.726V15.982z
	 M18.484,15.982H15.76v-2.725h2.725V15.982z M8.215,19.854H5.49v-2.726h2.725V19.854z M11.638,19.854H8.913v-2.726h2.725V19.854z"/>
</svg>
