<svg fill="#000000" xmlns:dc="http://purl.org/dc/elements/1.1/" xmlns:cc="http://creativecommons.org/ns#" xmlns:rdf="http://www.w3.org/1999/02/22-rdf-syntax-ns#" xmlns:svg="http://www.w3.org/2000/svg" xmlns="http://www.w3.org/2000/svg" xmlns:sodipodi="http://sodipodi.sourceforge.net/DTD/sodipodi-0.dtd" xmlns:inkscape="http://www.inkscape.org/namespaces/inkscape" version="1.1" x="0px" y="0px" viewBox="0 0 100 100"><g transform="translate(0,-952.36218)"><path style="text-indent:0;text-transform:none;direction:ltr;block-progression:tb;baseline-shift:baseline;color:#000000;enable-background:accumulate;" d="m 42,957.36219 c -9.9056,0 -18,8.0944 -18,18 0,9.9056 8.0944,18 18,18 9.9056,0 18,-8.0944 18,-18 0,-9.9056 -8.0944,-18 -18,-18 z m 0,6 c 6.663,0 12,5.3371 12,12 0,6.663 -5.337,12 -12,12 -6.663,0 -12,-5.337 -12,-12 0,-6.6629 5.337,-12 12,-12 z m 0,32 c -8.8615,0 -16.9039,2.4018 -22.9062,6.43751 -6.0027,4.0357 -10.0937998,9.9106 -10.0937998,16.5625 l 0,20 a 3.0003,3.0003 0 0 0 2.9999998,3 l 40.6562,0 c 2.0848,3.5754 5.9315,6 10.3438,6 l 16,0 c 6.5961,0 12,-5.4039 12,-12 0,-4.4832 -2.3934,-8.6194 -6.1875,-10.8125 -0.7859,-5.5373 -5.07,-9.9791 -10.5313,-10.9687 -1.4192,-4.6652 -4.8577,-8.7442 -9.375,-11.7813 C 58.9039,997.76399 50.8615,995.36219 42,995.36219 z m 0,6.00001 c 7.7585,0 14.7199,2.1506 19.5625,5.4062 3.136,2.1087 5.3161,4.5917 6.4687,7.2188 -4.521,1.4648 -7.9715,5.3592 -8.8124,10.125 -4.7446,1.6228 -8.2188,6.0005 -8.2188,11.25 l -36,0 0,-17 c 0,-4.1819 2.5949,-8.3377 7.4375,-11.5938 4.8426,-3.2556 11.804,-5.4062 19.5625,-5.4062 z m 30,18 c 3.9015,0 7,3.0984 7,7 a 3.0003,3.0003 0 0 0 2.0312,2.8125 c 2.0946,0.7268 3.9688,3.5001 3.9688,6.1875 0,3.3759 -2.6241,6 -6,6 l -16,0 c -3.3759,0 -6,-2.6241 -6,-6 0,-3.1565 2.3088,-5.707 5.3125,-6.0312 A 3.0003,3.0003 0 0 0 65,1026.3622 c 0,-3.9016 3.0985,-7 7,-7 z" fill="#000000" fill-opacity="1" stroke="none" marker="none" visibility="visible" display="inline" overflow="visible"/></g></svg>