<svg fill="#000000" xmlns:dc="http://purl.org/dc/elements/1.1/" xmlns:cc="http://creativecommons.org/ns#" xmlns:rdf="http://www.w3.org/1999/02/22-rdf-syntax-ns#" xmlns:svg="http://www.w3.org/2000/svg" xmlns="http://www.w3.org/2000/svg" xmlns:sodipodi="http://sodipodi.sourceforge.net/DTD/sodipodi-0.dtd" xmlns:inkscape="http://www.inkscape.org/namespaces/inkscape" version="1.1" x="0px" y="0px" viewBox="0 0 100 100"><g transform="translate(0,-952.36218)"><path style="text-indent:0;text-transform:none;direction:ltr;block-progression:tb;baseline-shift:baseline;color:#000000;enable-background:accumulate;" d="m 43,957.36215 c -9.9056,0 -18,8.0944 -18,18 0,9.9056 8.0944,18 18,18 9.9056,0 18,-8.0944 18,-18 0,-9.9056 -8.0944,-18 -18,-18 z m 0,6 c 6.663,0 12,5.3371 12,12 0,6.663 -5.337,12 -12,12 -6.663,0 -12,-5.337 -12,-12 0,-6.6629 5.337,-12 12,-12 z m 0,32 c -8.86152,0 -16.90385,2.4018 -22.90625,6.43755 C 14.09135,1005.8354 10,1011.7103 10,1018.3622 l 0,20 a 3.0003,3.0003 0 0 0 3,3 l 47.09375,0 c 3.12394,3.6636 7.74095,6 12.90625,6 9.3533,0 17,-7.6467 17,-17 0,-8.5839 -6.46062,-15.6949 -14.75,-16.8125 -1.42519,-4.6569 -4.83275,-8.7171 -9.34375,-11.75 C 59.90385,997.76395 51.86152,995.36215 43,995.36215 z m 0,6.00005 c 7.75848,0 14.7199,2.1504 19.5625,5.4062 3.08598,2.075 5.26538,4.5141 6.4375,7.0938 -7.43037,1.8157 -13,8.5291 -13,16.5 0,1.7433 0.28846,3.4138 0.78125,5 l -40.78125,0 0,-17 c 0,-4.1819 2.5949,-8.3378 7.4375,-11.5938 4.8426,-3.2558 11.80402,-5.4062 19.5625,-5.4062 z m 30,18 c 6.1107,0 11,4.8893 11,11 0,6.1107 -4.8893,11 -11,11 -6.1107,0 -11,-4.8893 -11,-11 0,-6.1107 4.8893,-11 11,-11 z m 0,1 c -1.6569,0 -3,1.3431 -3,3 l 0,4 -4,0 c -1.65685,0 -3,1.3432 -3,3 0,1.6569 1.34315,3 3,3 l 4,0 0,4 c 0,1.6568 1.3431,3 3,3 1.6568,0 3,-1.3432 3,-3 l 0,-4 4,0 c 1.65685,0 3,-1.3431 3,-3 0,-1.6568 -1.34315,-3 -3,-3 l -4,0 0,-4 c 0,-1.6569 -1.3432,-3 -3,-3 z" fill="#000000" fill-opacity="1" stroke="none" marker="none" visibility="visible" display="inline" overflow="visible"/></g></svg>