<svg width="100" height="100" xmlns="http://www.w3.org/2000/svg">

 <g>
  <title>background</title>
  <rect fill="none" id="canvas_background" height="402" width="582" y="-1" x="-1"/>
 </g>
 <g>
  <title>Layer 1</title>
  <g id="svg_1">
   <path id="svg_2" fill="#ffffff" d="m42,5.000007c-9.9056,0 -18,8.0944 -18,18c0,9.9056 8.0944,18 18,18c9.9056,0 18,-8.0944 18,-18c0,-9.9056 -8.0944,-18 -18,-18zm0,6c6.663,0 12,5.3371 12,12c0,6.663 -5.337,12 -12,12c-6.663,0 -12,-5.337 -12,-12c0,-6.6629 5.337,-12 12,-12zm0,32c-8.8615,0 -16.9039,2.4018 -22.9062,6.43751c-6.0027,4.0357 -10.0938,9.9106 -10.0938,16.5625l0,20a3.0003,3.0003 0 0 0 3,3l40.6562,0c2.0848,3.5754 5.9315,6 10.3438,6l16,0c6.5961,0 12,-5.4039 12,-12c0,-4.4832 -2.3934,-8.6194 -6.1875,-10.8125c-0.7859,-5.5373 -5.07,-9.9791 -10.5313,-10.9687c-1.4192,-4.6652 -4.8577,-8.7442 -9.375,-11.7813c-6.0023,-4.03571 -14.0447,-6.43751 -22.9062,-6.43751zm0,6.00001c7.7585,0 14.7199,2.1506 19.5625,5.4062c3.136,2.1087 5.3161,4.5917 6.4687,7.2188c-4.521,1.4648 -7.9715,5.3592 -8.8124,10.125c-4.7446,1.6228 -8.2188,6.0005 -8.2188,11.25l-36,0l0,-17c0,-4.1819 2.5949,-8.3377 7.4375,-11.5938c4.8426,-3.2556 11.804,-5.4062 19.5625,-5.4062zm30,18c3.9015,0 7,3.0984 7,7a3.0003,3.0003 0 0 0 2.0312,2.8125c2.0946,0.7268 3.9688,3.5001 3.9688,6.1875c0,3.3759 -2.6241,6 -6,6l-16,0c-3.3759,0 -6,-2.6241 -6,-6c0,-3.1565 2.3088,-5.707 5.3125,-6.0312a3.0003,3.0003 0 0 0 2.6875,-2.9688c0,-3.9016 3.0985,-7 7,-7z"/>
  </g>
 </g>
</svg>