<svg fill="#000000" xmlns:dc="http://purl.org/dc/elements/1.1/" xmlns:cc="http://creativecommons.org/ns#" xmlns:rdf="http://www.w3.org/1999/02/22-rdf-syntax-ns#" xmlns:svg="http://www.w3.org/2000/svg" xmlns="http://www.w3.org/2000/svg" xmlns:sodipodi="http://sodipodi.sourceforge.net/DTD/sodipodi-0.dtd" xmlns:inkscape="http://www.inkscape.org/namespaces/inkscape" version="1.1" x="0px" y="0px" viewBox="0 0 100 100"><g transform="translate(0,-952.36218)"><path style="text-indent:0;text-transform:none;direction:ltr;block-progression:tb;baseline-shift:baseline;color:#000000;enable-background:accumulate;" d="m 43,957.36218 c -9.9056,0 -18,8.0944 -18,18 0,9.9056 8.0944,18 18,18 9.9056,0 18,-8.0944 18,-18 0,-9.9056 -8.0944,-18 -18,-18 z m 0,6 c 6.663,0 12,5.3371 12,12 0,6.663 -5.337,12 -12,12 -6.663,0 -12,-5.337 -12,-12 0,-6.6629 5.337,-12 12,-12 z m 0,32 c -8.8615,0 -16.904,2.40181 -22.9062,6.43752 -6.0027,4.0357 -10.0938001,9.9106 -10.0938001,16.5625 l 0,20 a 3.0003,3.0003 0 0 0 3.0000001,3 l 45.625,0 c 3.2998,3.6737 8.0699,6 13.375,6 9.9115,0 18,-8.0884 18,-18 0,-9.0643 -6.7625,-16.5898 -15.5,-17.8125 -1.6988,-3.8198 -4.7417,-7.1601 -8.5938,-9.75 C 59.9038,997.76399 51.8615,995.36218 43,995.36218 z m 0,6.00002 c 7.7585,0 14.7199,2.1505 19.5625,5.4062 2.2699,1.5263 4.0414,3.2591 5.2813,5.0938 -7.9205,1.8851 -13.8438,9.018 -13.8438,17.5 0,2.1056 0.3925,4.119 1.0625,6 l -39.0625,0 0,-17 c 0,-4.1819 2.5949,-8.3378 7.4375,-11.5938 4.8426,-3.2557 11.804,-5.4062 19.5625,-5.4062 z m 29,15 c 7.2093,0 13,5.7907 13,13 0,7.2094 -5.7907,13 -13,13 -7.2093,0 -13,-5.7906 -13,-13 0,-7.2093 5.7907,-13 13,-13 z m 0,0.9688 c -3.2805,0 -6.6341,1.599 -7.4375,4.875 a 2.0002,2.0002 0 1 0 3.875,0.9374 c 0.2216,-0.9036 1.5304,-1.8124 3.5625,-1.8124 2.1344,0 3.5,1.3565 3.5,2.5937 0,1.3831 -0.2507,2.0072 -0.5312,2.4375 -0.281,0.4304 -0.6966,0.7674 -1.375,1.25 -0.6787,0.4827 -1.6156,1.1046 -2.375,2.2188 -0.76,1.1141 -1.2188,2.6201 -1.2188,4.5 a 2.0002,2.0002 0 1 0 4,0 c 0,-1.304 0.2284,-1.8516 0.5,-2.25 0.2716,-0.3985 0.71,-0.7235 1.4062,-1.2188 0.6966,-0.4952 1.6559,-1.1629 2.4063,-2.3125 0.7504,-1.1496 1.1875,-2.6895 1.1875,-4.625 0,-3.8282 -3.5622,-6.5937 -7.5,-6.5937 z m 0,20.0624 c -1.1046,0 -2,0.8954 -2,2 0,1.1047 0.8954,2 2,2 1.1046,0 2,-0.8953 2,-2 0,-1.1046 -0.8954,-2 -2,-2 z" fill="#000000" fill-opacity="1" stroke="none" marker="none" visibility="visible" display="inline" overflow="visible"/></g></svg>