<svg width="100" height="100" xmlns="http://www.w3.org/2000/svg">

 <g>
  <title>background</title>
  <rect fill="none" id="canvas_background" height="402" width="582" y="-1" x="-1"/>
 </g>
 <g>
  <title>Layer 1</title>
  <g id="svg_1">
   <path id="svg_2" fill="#ffffff" d="m43,4.999997c-9.9056,0 -18,8.0944 -18,18c0,9.9056 8.0944,18 18,18c9.9056,0 18,-8.0944 18,-18c0,-9.9056 -8.0944,-18 -18,-18zm0,6c6.663,0 12,5.3371 12,12c0,6.663 -5.337,12 -12,12c-6.663,0 -12,-5.337 -12,-12c0,-6.6629 5.337,-12 12,-12zm0,32c-8.8615,0 -16.904,2.40181 -22.9062,6.43752c-6.0027,4.0357 -10.0938,9.9106 -10.0938,16.5625l0,20a3.0003,3.0003 0 0 0 3,3l45.625,0c3.2998,3.6737 8.0699,6 13.375,6c9.9115,0 18,-8.0884 18,-18c0,-9.0643 -6.7625,-16.5898 -15.5,-17.8125c-1.6988,-3.8198 -4.7417,-7.1601 -8.5938,-9.75c-6.0024,-4.03571 -14.0447,-6.43752 -22.9062,-6.43752zm0,6.00002c7.7585,0 14.7199,2.1505 19.5625,5.4062c2.2699,1.5263 4.0414,3.2591 5.2813,5.0938c-7.9205,1.8851 -13.8438,9.018 -13.8438,17.5c0,2.1056 0.3925,4.119 1.0625,6l-39.0625,0l0,-17c0,-4.1819 2.5949,-8.3378 7.4375,-11.5938c4.8426,-3.2557 11.804,-5.4062 19.5625,-5.4062zm29,15c7.2093,0 13,5.7907 13,13c0,7.2094 -5.7907,13 -13,13c-7.2093,0 -13,-5.7906 -13,-13c0,-7.2093 5.7907,-13 13,-13zm0,0.9688c-3.2805,0 -6.6341,1.599 -7.4375,4.875a2.0002,2.0002 0 1 0 3.875,0.9374c0.2216,-0.9036 1.5304,-1.8124 3.5625,-1.8124c2.1344,0 3.5,1.3565 3.5,2.5937c0,1.3831 -0.2507,2.0072 -0.5312,2.4375c-0.281,0.4304 -0.6966,0.7674 -1.375,1.25c-0.6787,0.4827 -1.6156,1.1046 -2.375,2.2188c-0.76,1.1141 -1.2188,2.6201 -1.2188,4.5a2.0002,2.0002 0 1 0 4,0c0,-1.304 0.2284,-1.8516 0.5,-2.25c0.2716,-0.3985 0.71,-0.7235 1.4062,-1.2188c0.6966,-0.4952 1.6559,-1.1629 2.4063,-2.3125c0.7504,-1.1496 1.1875,-2.6895 1.1875,-4.625c0,-3.8282 -3.5622,-6.5937 -7.5,-6.5937zm0,20.0624c-1.1046,0 -2,0.8954 -2,2c0,1.1047 0.8954,2 2,2c1.1046,0 2,-0.8953 2,-2c0,-1.1046 -0.8954,-2 -2,-2z"/>
  </g>
 </g>
</svg>