<svg fill="#000000" xmlns:dc="http://purl.org/dc/elements/1.1/" xmlns:cc="http://creativecommons.org/ns#" xmlns:rdf="http://www.w3.org/1999/02/22-rdf-syntax-ns#" xmlns:svg="http://www.w3.org/2000/svg" xmlns="http://www.w3.org/2000/svg" xmlns:sodipodi="http://sodipodi.sourceforge.net/DTD/sodipodi-0.dtd" xmlns:inkscape="http://www.inkscape.org/namespaces/inkscape" version="1.1" x="0px" y="0px" viewBox="0 0 100 100"><g transform="translate(0,-952.36218)"><path style="text-indent:0;text-transform:none;direction:ltr;block-progression:tb;baseline-shift:baseline;color:#000000;enable-background:accumulate;" d="m 42.005233,957.36984 c -9.9056,0 -18,8.0944 -18,18 0,9.9056 8.0944,18 18,18 9.9056,0 18,-8.0944 18,-18 0,-9.9056 -8.0944,-18 -18,-18 z m 0,6 c 6.663,0 12,5.3371 12,12 0,6.663 -5.337,12 -12,12 -6.663,0 -12,-5.337 -12,-12 0,-6.6629 5.337,-12 12,-12 z m 0,32 c -8.8615,0 -16.9039,2.4018 -22.9062,6.43746 -6.0027,4.0358 -10.0938005,9.9107 -10.0938005,16.5625 l 0,20 a 3.0003,3.0003 0 0 0 3.0000005,3 l 53.0938,0 4.7187,5.0312 c 1.1848,1.2694 3.2449,1.2733 4.375,0 l 13.9063,-14.875 c 3.8081,-4.1067 3.9135,-10.7862 0,-14.9374 -3.6961,-3.9206 -9.4146,-4.221 -13.3438,-1.0313 -0.9651,-5.4908 -4.7002,-10.2916 -9.8438,-13.75 -6.0023,-4.03566 -14.0447,-6.43746 -22.9062,-6.43746 z m 0,5.99996 c 7.7585,0 14.7199,2.1506 19.5625,5.4063 3.5573,2.3919 5.9124,5.2647 6.9063,8.2813 -4.0783,-2.6015 -9.1664,-2.183 -12.5626,1.5312 -3.8904,4.1727 -3.8904,10.7647 0,14.9374 l 3.5938,3.8438 -44.5,0 0,-17 c 0,-4.1818 2.5949,-8.3376 7.4375,-11.5937 4.8426,-3.2557 11.804,-5.4063 19.5625,-5.4063 z m 38.8438,17.9375 c 0.9998,0 2.0235,0.4619 2.875,1.375 1.7024,1.8261 1.7024,4.9239 0,6.75 l -11.7188,12.5625 -11.7188,-12.5625 c -1.7026,-1.8261 -1.7026,-4.9239 0,-6.75 0.8518,-0.9135 1.8785,-1.2813 2.875,-1.2813 0.9966,0 1.9866,0.3619 2.8438,1.2813 l 3.7812,4.0937 c 1.1196,1.211 3.2867,1.211 4.4063,0 l 3.8125,-4.0937 c 0.8513,-0.9131 1.8439,-1.375 2.8438,-1.375 z" fill="#000000" fill-opacity="1" stroke="none" marker="none" visibility="visible" display="inline" overflow="visible"/></g></svg>