<svg width="100" height="100" xmlns="http://www.w3.org/2000/svg">

 <g>
  <title>background</title>
  <rect fill="none" id="canvas_background" height="402" width="582" y="-1" x="-1"/>
 </g>
 <g>
  <title>Layer 1</title>
  <g id="svg_1">
   <path id="svg_2" fill="#ffffff" d="m42.005233,5.007657c-9.9056,0 -18,8.0944 -18,18c0,9.9056 8.0944,18 18,18c9.9056,0 18,-8.0944 18,-18c0,-9.9056 -8.0944,-18 -18,-18zm0,6c6.663,0 12,5.3371 12,12c0,6.663 -5.337,12 -12,12c-6.663,0 -12,-5.337 -12,-12c0,-6.6629 5.337,-12 12,-12zm0,32c-8.8615,0 -16.9039,2.4018 -22.9062,6.43746c-6.0027,4.0358 -10.093801,9.9107 -10.093801,16.5625l0,20a3.0003,3.0003 0 0 0 3.000001,3l53.0938,0l4.7187,5.0312c1.1848,1.2694 3.2449,1.2733 4.375,0l13.9063,-14.875c3.8081,-4.1067 3.9135,-10.7862 0,-14.9374c-3.6961,-3.9206 -9.4146,-4.221 -13.3438,-1.0313c-0.9651,-5.4908 -4.7002,-10.2916 -9.8438,-13.75c-6.0023,-4.03566 -14.0447,-6.43746 -22.9062,-6.43746zm0,5.99996c7.7585,0 14.7199,2.1506 19.5625,5.4063c3.5573,2.3919 5.9124,5.2647 6.9063,8.2813c-4.0783,-2.6015 -9.1664,-2.183 -12.5626,1.5312c-3.8904,4.1727 -3.8904,10.7647 0,14.9374l3.5938,3.8438l-44.5,0l0,-17c0,-4.1818 2.5949,-8.3376 7.4375,-11.5937c4.8426,-3.2557 11.804,-5.4063 19.5625,-5.4063zm38.8438,17.9375c0.9998,0 2.0235,0.4619 2.875,1.375c1.7024,1.8261 1.7024,4.9239 0,6.75l-11.7188,12.5625l-11.7188,-12.5625c-1.7026,-1.8261 -1.7026,-4.9239 0,-6.75c0.8518,-0.9135 1.8785,-1.2813 2.875,-1.2813c0.9966,0 1.9866,0.3619 2.8438,1.2813l3.7812,4.0937c1.1196,1.211 3.2867,1.211 4.4063,0l3.8125,-4.0937c0.8513,-0.9131 1.8439,-1.375 2.8438,-1.375z"/>
  </g>
 </g>
</svg>